<svg width="65" height="65" viewBox="0 0 65 65" fill="none" xmlns="http://www.w3.org/2000/svg">
<rect x="0.199219" y="0.750488" width="64" height="64" rx="14" fill="#10245A"/>
<path fill-rule="evenodd" clip-rule="evenodd" d="M25.4426 28.8394V28.1283C25.4426 27.7358 25.7612 27.4172 26.1537 27.4172H31.8426C32.2352 27.4172 32.5537 27.7358 32.5537 28.1283V28.8394C32.5537 29.2319 32.2352 29.5505 31.8426 29.5505H26.1537C25.7612 29.5505 25.4426 29.2319 25.4426 28.8394ZM25.4426 24.5727V23.8616C25.4426 23.4691 25.7612 23.1505 26.1537 23.1505H36.8204C37.2129 23.1505 37.5315 23.4691 37.5315 23.8616V24.5727C37.5315 24.9653 37.2129 25.2838 36.8204 25.2838H26.1537C25.7612 25.2838 25.4426 24.9653 25.4426 24.5727ZM41.7982 45.195H22.5982V43.1455L27.6641 38.7132L31.251 41.1046C31.6528 41.3727 32.1825 41.3365 32.5452 41.02L38.2341 36.0422C38.6771 35.654 38.7219 34.9806 38.3344 34.5368C37.9461 34.0938 37.272 34.0483 36.8289 34.4366L31.7544 38.8767L28.1676 36.4853C27.7665 36.2172 27.2368 36.2534 26.8734 36.5699L22.5982 40.311V20.3061H41.7982V45.195ZM42.5093 18.1727H21.8871C21.102 18.1727 20.4648 18.8099 20.4648 19.595V45.9061C20.4648 46.6911 21.102 47.3283 21.8871 47.3283H42.5093C43.2944 47.3283 43.9315 46.6911 43.9315 45.9061V19.595C43.9315 18.8099 43.2944 18.1727 42.5093 18.1727Z" fill="white"/>
</svg>
