<svg width="64" height="65" viewBox="0 0 64 65" fill="none" xmlns="http://www.w3.org/2000/svg">
<rect y="0.750488" width="64" height="64" rx="14" fill="#10245A"/>
<path fill-rule="evenodd" clip-rule="evenodd" d="M40.8877 32.0394C40.8877 31.8431 40.7277 31.6838 40.5321 31.6838H23.4655C23.2699 31.6838 23.1099 31.8431 23.1099 32.0394V44.8394C23.1099 45.0357 23.2699 45.195 23.4655 45.195H40.5321C40.7277 45.195 40.8877 45.0357 40.8877 44.8394V32.0394ZM27.021 29.5505H36.9766V24.9283C36.9766 22.3797 34.903 20.3061 32.3543 20.3061H31.6432C29.0946 20.3061 27.021 22.3797 27.021 24.9283V29.5505ZM43.021 32.0394V44.8394C43.021 46.2118 41.9046 47.3283 40.5321 47.3283H23.4655C22.093 47.3283 20.9766 46.2118 20.9766 44.8394V32.0394C20.9766 30.667 22.093 29.5505 23.4655 29.5505H24.8877V24.9283C24.8877 21.2035 27.9184 18.1727 31.6432 18.1727H32.3543C36.0791 18.1727 39.1099 21.2035 39.1099 24.9283V29.5505H40.5321C41.9046 29.5505 43.021 30.667 43.021 32.0394ZM34.1762 41.4147C34.3291 41.8748 33.9863 42.3505 33.5007 42.3505H30.4969C30.0112 42.3505 29.6685 41.8748 29.8214 41.4147L31.0715 38.5745C30.3597 38.2289 29.8655 37.5057 29.8655 36.6616C29.8655 35.4833 30.8205 34.5283 31.9988 34.5283C33.1771 34.5283 34.1321 35.4833 34.1321 36.6616C34.1321 37.5057 33.6379 38.2289 32.9261 38.5745L34.1762 41.4147Z" fill="white"/>
</svg>
