<svg width="64" height="65" viewBox="0 0 64 65" fill="none" xmlns="http://www.w3.org/2000/svg">
<rect y="0.750488" width="64" height="64" rx="14" fill="#10245A"/>
<path fill-rule="evenodd" clip-rule="evenodd" d="M31.9997 24.5727C31.4109 24.5727 30.933 25.0499 30.933 25.6394C30.933 26.2289 31.4109 26.706 31.9997 26.706C36.5088 26.706 40.1774 30.3747 40.1774 34.8838C40.1774 37.0264 39.3547 39.0516 37.8599 40.5869C37.4496 41.0093 37.4589 41.6842 37.8813 42.0952C38.0882 42.2971 38.3563 42.3974 38.6244 42.3974C38.9024 42.3974 39.1805 42.29 39.3895 42.0753C41.2733 40.1396 42.3108 37.5853 42.3108 34.8838C42.3108 29.1985 37.685 24.5727 31.9997 24.5727ZM33.5826 32.7889C33.5221 32.6651 33.4667 32.5599 33.4247 32.498C32.8729 31.6852 31.7664 31.4755 30.9543 32.0273C30.1429 32.5798 29.9325 33.6849 30.4843 34.4977C30.5277 34.5595 30.6045 34.6491 30.6969 34.7508C30.7069 34.7601 30.7147 34.7707 30.7246 34.78C31.8709 36.0195 36.154 39.671 36.154 39.671C36.154 39.671 34.3307 34.3462 33.5997 32.8244C33.594 32.8123 33.5876 32.801 33.5826 32.7889ZM46.5774 34.8838C46.5774 38.6107 45.1189 42.066 42.3605 44.8756C42.1515 45.0883 41.8763 45.1949 41.5997 45.1949C41.3301 45.1949 41.0599 45.0932 40.8523 44.8891C40.432 44.4767 40.4263 43.8019 40.8388 43.3809C43.1975 40.978 44.4441 38.0397 44.4441 34.8838C44.4441 28.0223 38.8612 22.4394 31.9997 22.4394C25.1381 22.4394 19.5552 28.0223 19.5552 34.8838C19.5552 38.0397 20.8018 40.978 23.1605 43.3809C23.573 43.8019 23.5673 44.4767 23.147 44.8891C22.7268 45.303 22.0519 45.2966 21.6388 44.8756C18.8804 42.0653 17.4219 38.61 17.4219 34.8838C17.4219 26.8454 23.9613 20.306 31.9997 20.306C40.0381 20.306 46.5774 26.8454 46.5774 34.8838Z" fill="white"/>
</svg>
