<svg width="65" height="65" viewBox="0 0 65 65" fill="none" xmlns="http://www.w3.org/2000/svg">
<rect x="0.601562" y="0.750488" width="64" height="64" rx="14" fill="#10245A"/>
<path fill-rule="evenodd" clip-rule="evenodd" d="M45.0457 40.2172H37.813C37.52 41.0456 36.7299 41.6394 35.8012 41.6394H29.4012C28.4725 41.6394 27.6825 41.0456 27.3895 40.2172H20.1568V43.0616C20.1568 43.4535 20.4761 43.7727 20.8679 43.7727H44.3345C44.7264 43.7727 45.0457 43.4535 45.0457 43.0616V40.2172ZM21.579 38.0839H28.6901C29.0826 38.0839 29.4012 38.4024 29.4012 38.795V39.5061H35.8012V38.795C35.8012 38.4024 36.1198 38.0839 36.5123 38.0839H43.6234V21.7283H21.579V38.0839ZM47.179 38.795V43.0616C47.179 44.6325 45.9054 45.9061 44.3345 45.9061H20.8679C19.297 45.9061 18.0234 44.6325 18.0234 43.0616V38.795C18.0234 38.4024 18.342 38.0839 18.7345 38.0839H19.4457V21.7283C19.4457 20.55 20.4007 19.595 21.579 19.595H43.6234C44.8017 19.595 45.7568 20.55 45.7568 21.7283V38.0839H46.4679C46.8604 38.0839 47.179 38.4024 47.179 38.795ZM30.8405 34.2716L28.3516 32.1383C27.9043 31.755 27.8524 31.0815 28.2357 30.6343C28.619 30.1863 29.2938 30.1351 29.7397 30.5183L31.4542 31.9875L36.0899 27.0431C36.4924 26.6136 37.1665 26.5909 37.5975 26.9948C38.027 27.3973 38.049 28.0721 37.6458 28.5023L32.3125 34.1912C32.1034 34.4145 31.819 34.5283 31.5345 34.5283C31.2878 34.5283 31.041 34.4437 30.8405 34.2716Z" fill="white"/>
</svg>
