<svg width="65" height="65" viewBox="0 0 65 65" fill="none" xmlns="http://www.w3.org/2000/svg">
<rect x="0.398438" y="0.750488" width="64" height="64" rx="14" fill="#10245A"/>
<path fill-rule="evenodd" clip-rule="evenodd" d="M43.4203 21.7282V23.1505C43.4203 23.543 43.7389 23.8616 44.1314 23.8616H44.8425C45.2351 23.8616 45.5536 23.543 45.5536 23.1505V20.6616C45.5536 20.0721 45.0765 19.5949 44.487 19.5949H20.3092C19.7197 19.5949 19.2425 20.0721 19.2425 20.6616V38.0838H18.887C18.2968 38.0838 17.8203 38.5674 17.8203 39.506V43.7727C17.8203 45.1878 19.2568 46.6171 21.0203 46.6171H31.3314C31.724 46.6171 32.0425 46.2986 32.0425 45.906V45.1949C32.0425 44.8024 31.724 44.4838 31.3314 44.4838H21.0203C20.4308 44.4838 19.9536 44.0066 19.9536 43.4171V40.2171H26.3536C26.6466 41.0456 27.4367 41.6394 28.3654 41.6394H31.3314C31.724 41.6394 32.0425 41.3208 32.0425 40.9282V40.2171C32.0425 39.8246 31.724 39.506 31.3314 39.506H28.3654V38.7949C28.3654 38.4024 28.0468 38.0838 27.6543 38.0838H21.3759V21.7282H43.4203ZM40.2203 42.3505H40.9314C41.5209 42.3505 41.9981 41.8733 41.9981 41.2838C41.9981 40.6943 41.5209 40.2171 40.9314 40.2171H40.2203C39.6308 40.2171 39.1536 40.6943 39.1536 41.2838C39.1536 41.8733 39.6308 42.3505 40.2203 42.3505ZM36.3092 44.4838H44.8425V28.1282H36.3092V44.4838ZM45.1981 46.6171H35.9536C34.9737 46.6171 34.1759 45.8193 34.1759 44.8394V27.7727C34.1759 26.7928 34.9737 25.9949 35.9536 25.9949H45.1981C46.178 25.9949 46.9759 26.7928 46.9759 27.7727V44.8394C46.9759 45.8193 46.178 46.6171 45.1981 46.6171Z" fill="white"/>
</svg>
