<svg width="65" height="65" viewBox="0 0 65 65" fill="none" xmlns="http://www.w3.org/2000/svg">
<rect x="0.601562" y="0.750488" width="64" height="64" rx="14" fill="#10245A"/>
<path fill-rule="evenodd" clip-rule="evenodd" d="M24.6402 34.9612C23.9163 34.9612 23.3303 35.5479 23.3303 36.2718C23.3303 36.995 23.9163 37.5817 24.6402 37.5817C25.3641 37.5817 25.9501 36.995 25.9501 36.2718C25.9501 35.5479 25.3641 34.9612 24.6402 34.9612ZM29.0801 34.9612C28.3562 34.9612 27.7702 35.5479 27.7702 36.2718C27.7702 36.995 28.3562 37.5817 29.0801 37.5817C29.804 37.5817 30.3907 36.995 30.3907 36.2718C30.3907 35.5479 29.804 34.9612 29.0801 34.9612ZM32.2102 36.2718C32.2102 35.5479 32.7968 34.9612 33.52 34.9612C34.244 34.9612 34.8306 35.5479 34.8306 36.2718C34.8306 36.995 34.244 37.5817 33.52 37.5817C32.7968 37.5817 32.2102 36.995 32.2102 36.2718ZM43.5481 34.8991L44.4256 37.533L41.7924 36.6548C41.4902 36.5545 41.1567 36.5937 40.8857 36.7643C40.6269 36.9279 40.3602 37.0715 40.09 37.2066C40.1156 36.898 40.1369 36.5873 40.1369 36.2715C40.1369 30.1745 35.1769 25.2145 29.0799 25.2145C28.762 25.2145 28.4484 25.2358 28.1369 25.2628C29.6168 22.2783 32.6888 20.3064 36.1227 20.3064C41.0429 20.3064 45.0457 24.3092 45.0457 29.2294C45.0457 30.9069 44.5657 32.5545 43.6576 33.9924C43.4877 34.2626 43.4464 34.5961 43.5481 34.8991ZM29.0799 45.1953C27.3974 45.1953 25.7512 44.7153 24.3183 43.8079C24.1455 43.6991 23.9471 43.6422 23.7472 43.6422C23.6342 43.6422 23.5197 43.6607 23.4102 43.6977L20.7769 44.5752L21.6544 41.9412C21.7554 41.6376 21.7149 41.3041 21.5435 41.0331C20.6361 39.6009 20.1568 37.954 20.1568 36.2715C20.1568 31.3513 24.1597 27.3478 29.0799 27.3478C34.0008 27.3478 38.0036 31.3513 38.0036 36.2715C38.0036 41.1917 34.0008 45.1953 29.0799 45.1953ZM45.727 34.69C46.6784 33.0175 47.1791 31.1409 47.1791 29.2294C47.1791 23.133 42.2191 18.173 36.1227 18.173C31.332 18.173 27.1065 21.2706 25.631 25.7734C21.22 27.2262 18.0235 31.3798 18.0235 36.2715C18.0235 38.188 18.5241 40.0653 19.4756 41.7329L18.0783 45.9241C17.9503 46.3074 18.0505 46.7298 18.3357 47.0157C18.5391 47.2191 18.8114 47.3286 19.0902 47.3286C19.2032 47.3286 19.317 47.3101 19.4272 47.2731L23.6192 45.8765C25.2868 46.8273 27.1641 47.3286 29.0799 47.3286C33.9716 47.3286 38.1245 44.1329 39.578 39.7225C40.2685 39.495 40.9398 39.1992 41.5819 38.8337L45.7746 40.2317C45.8856 40.268 45.9993 40.2865 46.1124 40.2865C46.3904 40.2865 46.6635 40.1769 46.8669 39.9736C47.152 39.6884 47.2516 39.266 47.1243 38.8827L45.727 34.69Z" fill="white"/>
</svg>
