<svg width="64" height="65" viewBox="0 0 64 65" fill="none" xmlns="http://www.w3.org/2000/svg">
<rect y="0.750488" width="64" height="64" rx="14" fill="#10245A"/>
<path fill-rule="evenodd" clip-rule="evenodd" d="M30.2215 29.5505H33.066V31.6838H30.9326V33.8172H28.7993V30.9727C28.7993 30.1877 29.4365 29.5505 30.2215 29.5505ZM35.1993 31.6838H38.7549V29.5505H35.1993V31.6838ZM33.066 44.4838V45.195C33.066 45.5875 32.7474 45.9061 32.3549 45.9061H30.2215C29.4365 45.9061 28.7993 45.2689 28.7993 44.4838V41.6394H30.9326V43.7727H32.3549C32.7474 43.7727 33.066 44.0913 33.066 44.4838ZM28.7993 39.5061H30.9326V35.9505H28.7993V39.5061ZM39.3529 40.0508C39.0983 40.139 38.8871 40.321 38.7613 40.5585L37.7472 42.475L36.6045 37.2348L41.2502 39.3887L39.3529 40.0508ZM44.5369 38.5603L35.5527 34.3946C35.1858 34.2254 34.7534 34.2766 34.437 34.5311C34.1206 34.7836 33.9755 35.1946 34.0622 35.59L36.2852 45.7774C36.3805 46.2154 36.7389 46.5461 37.1826 46.6072C37.2309 46.6136 37.2793 46.6172 37.3277 46.6172C37.7181 46.6172 38.0836 46.4017 38.2699 46.049L40.4509 41.9267L44.4395 40.535C44.8498 40.3921 45.1321 40.0152 45.1534 39.5807C45.1748 39.147 44.9309 38.7438 44.5369 38.5603ZM45.1549 30.9727V33.1061C45.1549 33.4986 44.8363 33.8172 44.4438 33.8172H43.7326C43.3401 33.8172 43.0215 33.4986 43.0215 33.1061V31.6838H40.8882V29.5505H43.7326C44.5177 29.5505 45.1549 30.1877 45.1549 30.9727ZM25.9549 22.4394H43.0215V20.3061H25.9549V22.4394ZM20.9771 22.4394H23.8215V20.3061H20.9771V22.4394ZM45.1549 20.3061C45.1549 19.1278 44.1998 18.1727 43.0215 18.1727H20.9771C19.7988 18.1727 18.8438 19.1278 18.8438 20.3061V42.3505C18.8438 43.5288 19.7988 44.4838 20.9771 44.4838H25.2438C25.6363 44.4838 25.9549 44.1653 25.9549 43.7727V43.0616C25.9549 42.6691 25.6363 42.3505 25.2438 42.3505H20.9771V24.5727H43.0215V25.995C43.0215 26.3875 43.3401 26.7061 43.7326 26.7061H44.4438C44.8363 26.7061 45.1549 26.3875 45.1549 25.995V22.4394H45.1399C45.147 21.5612 45.1549 20.3061 45.1549 20.3061Z" fill="white"/>
</svg>
