<svg width="64" height="65" viewBox="0 0 64 65" fill="none" xmlns="http://www.w3.org/2000/svg">
<rect y="0.750488" width="64" height="64" rx="14" fill="#10245A"/>
<path fill-rule="evenodd" clip-rule="evenodd" d="M43.7355 24.5764H40.1799V21.0209C40.1799 20.4306 39.6964 19.9542 39.1133 19.9542C38.523 19.9542 38.0466 20.4306 38.0466 21.0209V24.5764H34.491C33.9008 24.5764 33.4244 25.0529 33.4244 25.6431C33.4244 26.2255 33.9008 26.7098 34.491 26.7098H38.0466V30.2653C38.0466 30.8477 38.523 31.332 39.1133 31.332C39.6964 31.332 40.1799 30.8477 40.1799 30.2653V26.7098H43.7355C44.3186 26.7098 44.8021 26.2255 44.8021 25.6431C44.8021 25.0529 44.3186 24.5764 43.7355 24.5764ZM43.018 33.8173H35.2022C34.0224 33.8173 33.066 34.7738 33.066 35.9535V43.7693C33.066 44.949 34.0224 45.9062 35.2022 45.9062H43.018C44.1977 45.9062 45.1549 44.949 45.1549 43.7693V35.9535C45.1549 34.7738 44.1977 33.8173 43.018 33.8173ZM43.018 35.9506L43.0215 35.9535L43.018 43.7729L35.1993 43.7693L35.2021 35.9506H43.018ZM28.7957 33.8173H20.9799C19.8002 33.8173 18.8438 34.7738 18.8438 35.9535V43.7693C18.8438 44.949 19.8002 45.9062 20.9799 45.9062H28.7957C29.9755 45.9062 30.9326 44.949 30.9326 43.7693V35.9535C30.9326 34.7738 29.9755 33.8173 28.7957 33.8173ZM28.7957 35.9506L28.7993 35.9535L28.7957 43.7729L20.9771 43.7693L20.9799 35.9506H28.7957ZM28.7957 19.5951H20.9799C19.8002 19.5951 18.8438 20.5515 18.8438 21.7313V29.5471C18.8438 30.7268 19.8002 31.684 20.9799 31.684H28.7957C29.9755 31.684 30.9326 30.7268 30.9326 29.5471V21.7313C30.9326 20.5515 29.9755 19.5951 28.7957 19.5951ZM28.7957 21.7284L28.7993 21.7313L28.7957 29.5506L20.9771 29.5471L20.9799 21.7284H28.7957Z" fill="white"/>
</svg>
