<svg width="64" height="65" viewBox="0 0 64 65" fill="none" xmlns="http://www.w3.org/2000/svg">
<rect y="0.750488" width="64" height="64" rx="14" fill="#10245A"/>
<path fill-rule="evenodd" clip-rule="evenodd" d="M34.5895 44.92C35.5069 43.4068 36.6546 41.0964 37.3693 38.1196C40.346 37.4057 42.6564 36.258 44.1696 35.3399C43.1513 40.1264 39.376 43.9024 34.5895 44.92ZM19.8717 35.4978C21.3721 36.4606 23.6512 37.6091 26.6685 38.2654C27.3853 41.1703 28.5081 43.4316 29.4105 44.92C24.6773 43.9131 20.9383 40.2082 19.8717 35.4978ZM29.2533 20.622C28.3054 22.0976 27.1797 24.3262 26.5177 27.2688C23.5751 27.9301 21.3472 29.0558 19.8717 30.0037C20.9262 25.346 24.5956 21.6766 29.2533 20.622ZM44.1696 30.1609C42.6813 29.2585 40.4192 28.1356 37.5143 27.4196C36.858 24.4016 35.7102 22.1225 34.7467 20.622C39.4578 21.6887 43.1634 25.4277 44.1696 30.1609ZM37.8941 29.742C41.0194 30.6601 43.226 32.0439 44.218 32.7508C43.216 33.464 40.9774 34.8656 37.8073 35.7822C37.9559 34.7163 38.0441 33.5877 38.0441 32.3952C38.0441 31.4644 37.9872 30.5833 37.8941 29.742ZM31.9997 20.4556C32.7307 21.3602 34.2894 23.5781 35.2032 26.9637C34.0882 26.8009 32.8999 26.7063 31.6441 26.7063C30.65 26.7063 29.7134 26.771 28.8224 26.877C29.739 23.5419 31.2757 21.3516 31.9997 20.4556ZM26.2133 35.9543C22.8228 35.0391 20.6041 33.4775 19.7024 32.7479C20.5934 32.0226 22.7751 30.4809 26.1273 29.5657C26.0206 30.4596 25.9552 31.3982 25.9552 32.3952C25.9552 33.651 26.0498 34.8393 26.2133 35.9543ZM31.6441 36.6619C30.5099 36.6619 29.4517 36.5708 28.4647 36.4215C28.2336 35.1799 28.0885 33.8373 28.0885 32.3952C28.0885 31.2148 28.1845 30.1147 28.3453 29.0935C29.365 28.9349 30.4637 28.8396 31.6441 28.8396C33.0869 28.8396 34.4288 28.9847 35.6711 29.2151C35.8197 30.2028 35.9108 31.261 35.9108 32.3952C35.9108 33.7932 35.7742 35.0974 35.5559 36.307C34.3463 36.5246 33.0421 36.6619 31.6441 36.6619ZM28.9917 38.6452C29.8329 38.7383 30.714 38.7952 31.6441 38.7952C32.8373 38.7952 33.9659 38.7063 35.0318 38.5584C34.1145 41.7285 32.7129 43.9678 31.9997 44.9684C31.2928 43.9756 29.9097 41.7691 28.9917 38.6452ZM31.9997 18.173C23.962 18.173 17.4219 24.7124 17.4219 32.7508C17.4219 40.7884 23.962 47.3285 31.9997 47.3285C40.0381 47.3285 46.5774 40.7884 46.5774 32.7508C46.5774 24.7124 40.0381 18.173 31.9997 18.173Z" fill="white"/>
</svg>
