<svg width="65" height="65" viewBox="0 0 65 65" fill="none" xmlns="http://www.w3.org/2000/svg">
<rect x="0.398438" y="0.750488" width="64" height="64" rx="14" fill="#10245A"/>
<path fill-rule="evenodd" clip-rule="evenodd" d="M19.9536 40.9284V24.5729H38.2249L37.2841 25.6481C36.8966 26.0918 36.9414 26.7652 37.3844 27.1535C37.5871 27.3305 37.8367 27.4173 38.087 27.4173C38.3835 27.4173 38.6786 27.2943 38.8898 27.0532L41.3787 24.2088C41.7307 23.8063 41.7307 23.2061 41.3787 22.8036L38.8898 19.9592C38.8415 19.9037 38.7881 19.8546 38.732 19.812C38.5627 19.6833 38.3622 19.6107 38.1581 19.5972C37.858 19.5773 37.5494 19.6833 37.3197 19.9208C36.9229 20.3289 36.9613 20.9953 37.3353 21.4233L38.2249 22.4395H19.2425C18.4575 22.4395 17.8203 23.0767 17.8203 23.8617V41.6395C17.8203 42.4246 18.4575 43.0617 19.2425 43.0617H21.3759C21.7691 43.0617 22.087 42.7432 22.087 42.3506V41.6395C22.087 41.247 21.7691 40.9284 21.3759 40.9284H19.9536ZM45.5536 22.4395H44.1314C43.7382 22.4395 43.4203 22.7581 43.4203 23.1506V23.8617C43.4203 24.2543 43.7382 24.5729 44.1314 24.5729H44.8425V40.9284H26.9268L27.8676 39.8532C28.2552 39.4095 28.2104 38.7361 27.7673 38.3478C27.3229 37.9595 26.6495 38.005 26.2619 38.4481L23.773 41.2925C23.421 41.695 23.421 42.2952 23.773 42.6977L26.2619 45.5421C26.4731 45.7832 26.7682 45.9062 27.0648 45.9062C27.3151 45.9062 27.5647 45.8194 27.7673 45.6424C28.2104 45.2541 28.2552 44.5807 27.8676 44.1369L26.9268 43.0617H45.5536C46.3387 43.0617 46.9759 42.4246 46.9759 41.6395V23.8617C46.9759 23.0767 46.3387 22.4395 45.5536 22.4395ZM32.7536 30.2617C31.5775 30.2617 30.6203 31.3782 30.6203 32.7506C30.6203 34.1231 31.5775 35.2395 32.7536 35.2395C33.9298 35.2395 34.887 34.1231 34.887 32.7506C34.887 31.3782 33.9298 30.2617 32.7536 30.2617ZM32.7536 28.1284C35.1096 28.1284 37.0203 30.1977 37.0203 32.7506C37.0203 35.3035 35.1096 37.3729 32.7536 37.3729C30.3977 37.3729 28.487 35.3035 28.487 32.7506C28.487 30.1977 30.3977 28.1284 32.7536 28.1284ZM24.9314 27.4173V26.7062C24.9314 26.3137 24.6136 25.9951 24.2203 25.9951H22.087C21.6937 25.9951 21.3759 26.3137 21.3759 26.7062V27.4173C21.3759 27.8098 21.6937 28.1284 22.087 28.1284H24.2203C24.6136 28.1284 24.9314 27.8098 24.9314 27.4173ZM40.5759 37.3729H42.7092C43.1024 37.3729 43.4203 37.6914 43.4203 38.084V38.7951C43.4203 39.1876 43.1024 39.5062 42.7092 39.5062H40.5759C40.1826 39.5062 39.8648 39.1876 39.8648 38.7951V38.084C39.8648 37.6914 40.1826 37.3729 40.5759 37.3729Z" fill="white"/>
</svg>
